<svg xmlns="http://www.w3.org/2000/svg" xmlns:xlink="http://www.w3.org/1999/xlink" contentStyleType="text/css" data-diagram-type="CLASS" height="798px" preserveAspectRatio="none" style="width:896px;height:798px;background:#FFFFFF;" version="1.1" viewBox="0 0 896 798" width="896px" zoomAndPan="magnify"><defs/><g><!--cluster app--><g class="cluster" data-entity="app" data-source-line="3" data-uid="ent0004" id="cluster_app"><path d="M13.5,11 L43.9902,11 A3.75,3.75 0 0 1 46.4902,13.5 L53.4902,33.2969 L886.5,33.2969 A2.5,2.5 0 0 1 889,35.7969 L889,788.5 A2.5,2.5 0 0 1 886.5,791 L13.5,791 A2.5,2.5 0 0 1 11,788.5 L11,13.5 A2.5,2.5 0 0 1 13.5,11" fill="#FFFFFF" style="stroke:#000000;stroke-width:1;"/><line style="stroke:#000000;stroke-width:1;" x1="11" x2="53.4902" y1="33.2969" y2="33.2969"/><text fill="#000000" font-family="Verdana" font-size="14" font-weight="bold" lengthAdjust="spacing" textLength="29.4902" x="15" y="25.9951">app</text></g><!--cluster chinchon--><g class="cluster" data-entity="chinchon" data-source-line="3" data-uid="ent0005" id="cluster_chinchon"><path d="M37.5,54 L109.3818,54 A3.75,3.75 0 0 1 111.8818,56.5 L118.8818,76.2969 L862.5,76.2969 A2.5,2.5 0 0 1 865,78.7969 L865,764.5 A2.5,2.5 0 0 1 862.5,767 L37.5,767 A2.5,2.5 0 0 1 35,764.5 L35,56.5 A2.5,2.5 0 0 1 37.5,54" fill="#FFFFFF" style="stroke:#000000;stroke-width:1;"/><line style="stroke:#000000;stroke-width:1;" x1="35" x2="118.8818" y1="76.2969" y2="76.2969"/><text fill="#000000" font-family="Verdana" font-size="14" font-weight="bold" lengthAdjust="spacing" textLength="70.8818" x="39" y="68.9951">chinchon</text></g><!--cluster game--><g class="cluster" data-entity="game" data-source-line="2" data-uid="ent0002" id="cluster_game"><path d="M61.5,97 L106.0518,97 A3.75,3.75 0 0 1 108.5518,99.5 L115.5518,119.2969 L577.5,119.2969 A2.5,2.5 0 0 1 580,121.7969 L580,740.5 A2.5,2.5 0 0 1 577.5,743 L61.5,743 A2.5,2.5 0 0 1 59,740.5 L59,99.5 A2.5,2.5 0 0 1 61.5,97" fill="#FFFFFF" style="stroke:#000000;stroke-width:1;"/><line style="stroke:#000000;stroke-width:1;" x1="59" x2="115.5518" y1="119.2969" y2="119.2969"/><text fill="#000000" font-family="Verdana" font-size="14" font-weight="bold" lengthAdjust="spacing" textLength="43.5518" x="63" y="111.9951">game</text></g><!--cluster player--><g class="cluster" data-entity="player" data-source-line="43" data-uid="ent0011" id="cluster_player"><path d="M606.5,413 L657.293,413 A3.75,3.75 0 0 1 659.793,415.5 L666.793,435.2969 L705.5,435.2969 A2.5,2.5 0 0 1 708,437.7969 L708,505.5 A2.5,2.5 0 0 1 705.5,508 L606.5,508 A2.5,2.5 0 0 1 604,505.5 L604,415.5 A2.5,2.5 0 0 1 606.5,413" fill="#FFFFFF" style="stroke:#000000;stroke-width:1;"/><line style="stroke:#000000;stroke-width:1;" x1="604" x2="666.793" y1="435.2969" y2="435.2969"/><text fill="#000000" font-family="Verdana" font-size="14" font-weight="bold" lengthAdjust="spacing" textLength="49.793" x="608" y="427.9951">player</text></g><!--cluster model--><g class="cluster" data-entity="model" data-source-line="46" data-uid="ent0016" id="cluster_model"><path d="M606.5,623.5 L656.0215,623.5 A3.75,3.75 0 0 1 658.5215,626 L665.5215,645.7969 L838.5,645.7969 A2.5,2.5 0 0 1 841,648.2969 L841,716 A2.5,2.5 0 0 1 838.5,718.5 L606.5,718.5 A2.5,2.5 0 0 1 604,716 L604,626 A2.5,2.5 0 0 1 606.5,623.5" fill="#FFFFFF" style="stroke:#000000;stroke-width:1;"/><line style="stroke:#000000;stroke-width:1;" x1="604" x2="665.5215" y1="645.7969" y2="645.7969"/><text fill="#000000" font-family="Verdana" font-size="14" font-weight="bold" lengthAdjust="spacing" textLength="48.5215" x="608" y="638.4951">model</text></g><!--class Game--><g class="entity" data-entity="Game" data-source-line="3" data-uid="ent0003" id="entity_Game"><rect fill="#FFFFFF" height="174.375" rx="2.5" ry="2.5" style="stroke:#000000;stroke-width:1;" width="186.5996" x="351.5" y="132"/><ellipse cx="420.2104" cy="146" fill="#FFFFFF" rx="9" ry="9" style="stroke:#000000;stroke-width:1;"/><path d="M423.1792,151.6406 Q422.6011,151.9375 421.9604,152.0781 Q421.3198,152.2344 420.6167,152.2344 Q418.1167,152.2344 416.7886,150.5938 Q415.4761,148.9375 415.4761,145.8125 Q415.4761,142.6875 416.7886,141.0313 Q418.1167,139.375 420.6167,139.375 Q421.3198,139.375 421.9604,139.5313 Q422.6167,139.6875 423.1792,139.9844 L423.1792,142.7031 Q422.5542,142.125 421.9604,141.8594 Q421.3667,141.5781 420.7417,141.5781 Q419.3979,141.5781 418.7104,142.6563 Q418.0229,143.7188 418.0229,145.8125 Q418.0229,147.9063 418.7104,148.9844 Q419.3979,150.0469 420.7417,150.0469 Q421.3667,150.0469 421.9604,149.7813 Q422.5542,149.5 423.1792,148.9219 L423.1792,151.6406 Z " fill="#000000"/><text fill="#000000" font-family="Verdana" font-size="14" lengthAdjust="spacing" textLength="41.6787" x="437.7104" y="150.8467">Game</text><line style="stroke:#000000;stroke-width:1;" x1="352.5" x2="537.0996" y1="160" y2="160"/><rect fill="none" height="6" style="stroke:#000000;stroke-width:1;" width="6" x="359.5" y="170.6484"/><text fill="#000000" font-family="Verdana" font-size="14" lengthAdjust="spacing" textLength="97.8291" x="369.5" y="176.9951">pointLimit: int</text><rect fill="none" height="6" style="stroke:#000000;stroke-width:1;" width="6" x="359.5" y="186.9453"/><text fill="#000000" font-family="Verdana" font-size="14" lengthAdjust="spacing" textLength="102.2998" x="369.5" y="193.292">deckCount: int</text><rect fill="none" height="6" style="stroke:#000000;stroke-width:1;" width="6" x="359.5" y="203.2422"/><text fill="#000000" font-family="Verdana" font-size="14" lengthAdjust="spacing" textLength="124.6123" x="369.5" y="209.5889">roundNumber: int</text><line style="stroke:#000000;stroke-width:1;" x1="352.5" x2="537.0996" y1="216.8906" y2="216.8906"/><ellipse cx="362.5" cy="230.5391" fill="#FFFFFF" rx="3" ry="3" style="stroke:#000000;stroke-width:1;"/><text fill="#000000" font-family="Verdana" font-size="14" lengthAdjust="spacing" textLength="43.5313" x="369.5" y="233.8857">start()</text><rect fill="#FFFFFF" height="6" style="stroke:#000000;stroke-width:1;" width="6" x="359.5" y="243.8359"/><text fill="#000000" font-family="Verdana" font-size="14" lengthAdjust="spacing" textLength="85.4902" x="369.5" y="250.1826">playRound()</text><rect fill="#FFFFFF" height="6" style="stroke:#000000;stroke-width:1;" width="6" x="359.5" y="260.1328"/><text fill="#000000" font-family="Verdana" font-size="14" lengthAdjust="spacing" textLength="127.2578" x="369.5" y="266.4795">eliminatePlayers()</text><rect fill="#FFFFFF" height="6" style="stroke:#000000;stroke-width:1;" width="6" x="359.5" y="276.4297"/><text fill="#000000" font-family="Verdana" font-size="14" lengthAdjust="spacing" textLength="162.5996" x="369.5" y="282.7764">isGameOver(): boolean</text><rect fill="#FFFFFF" height="6" style="stroke:#000000;stroke-width:1;" width="6" x="359.5" y="292.7266"/><text fill="#000000" font-family="Verdana" font-size="14" lengthAdjust="spacing" textLength="129.7188" x="369.5" y="299.0732">announceWinner()</text></g><!--class Round--><g class="entity" data-entity="Round" data-source-line="14" data-uid="ent0006" id="entity_Round"><rect fill="#FFFFFF" height="174.375" rx="2.5" ry="2.5" style="stroke:#000000;stroke-width:1;" width="237.9512" x="326" y="383"/><ellipse cx="418.7627" cy="397" fill="#FFFFFF" rx="9" ry="9" style="stroke:#000000;stroke-width:1;"/><path d="M421.7314,402.6406 Q421.1533,402.9375 420.5127,403.0781 Q419.8721,403.2344 419.1689,403.2344 Q416.6689,403.2344 415.3408,401.5938 Q414.0283,399.9375 414.0283,396.8125 Q414.0283,393.6875 415.3408,392.0313 Q416.6689,390.375 419.1689,390.375 Q419.8721,390.375 420.5127,390.5313 Q421.1689,390.6875 421.7314,390.9844 L421.7314,393.7031 Q421.1064,393.125 420.5127,392.8594 Q419.9189,392.5781 419.2939,392.5781 Q417.9502,392.5781 417.2627,393.6563 Q416.5752,394.7188 416.5752,396.8125 Q416.5752,398.9063 417.2627,399.9844 Q417.9502,401.0469 419.2939,401.0469 Q419.9189,401.0469 420.5127,400.7813 Q421.1064,400.5 421.7314,399.9219 L421.7314,402.6406 Z " fill="#000000"/><text fill="#000000" font-family="Verdana" font-size="14" lengthAdjust="spacing" textLength="44.9258" x="436.2627" y="401.8467">Round</text><line style="stroke:#000000;stroke-width:1;" x1="327" x2="562.9512" y1="411" y2="411"/><rect fill="none" height="6" style="stroke:#000000;stroke-width:1;" width="6" x="334" y="421.6484"/><text fill="#000000" font-family="Verdana" font-size="14" lengthAdjust="spacing" textLength="139.7676" x="344" y="427.9951">roundOver: boolean</text><rect fill="none" height="6" style="stroke:#000000;stroke-width:1;" width="6" x="334" y="437.9453"/><text fill="#000000" font-family="Verdana" font-size="14" lengthAdjust="spacing" textLength="155.0869" x="344" y="444.292">chinchonWin: boolean</text><line style="stroke:#000000;stroke-width:1;" x1="327" x2="562.9512" y1="451.5938" y2="451.5938"/><ellipse cx="337" cy="465.2422" fill="#FFFFFF" rx="3" ry="3" style="stroke:#000000;stroke-width:1;"/><text fill="#000000" font-family="Verdana" font-size="14" lengthAdjust="spacing" textLength="40.5645" x="344" y="468.5889">play()</text><rect fill="#FFFFFF" height="6" style="stroke:#000000;stroke-width:1;" width="6" x="334" y="478.5391"/><text fill="#000000" font-family="Verdana" font-size="14" lengthAdjust="spacing" textLength="116.1836" x="344" y="484.8857">playTurn(Player)</text><rect fill="#FFFFFF" height="6" style="stroke:#000000;stroke-width:1;" width="6" x="334" y="494.8359"/><text fill="#000000" font-family="Verdana" font-size="14" lengthAdjust="spacing" textLength="138.7695" x="344" y="501.1826">handleDraw(Player)</text><rect fill="#FFFFFF" height="6" style="stroke:#000000;stroke-width:1;" width="6" x="334" y="511.1328"/><text fill="#000000" font-family="Verdana" font-size="14" lengthAdjust="spacing" textLength="213.9512" x="344" y="517.4795">attemptClose(Player): boolean</text><rect fill="#FFFFFF" height="6" style="stroke:#000000;stroke-width:1;" width="6" x="334" y="527.4297"/><text fill="#000000" font-family="Verdana" font-size="14" lengthAdjust="spacing" textLength="155.0869" x="344" y="533.7764">handleDiscard(Player)</text><rect fill="#FFFFFF" height="6" style="stroke:#000000;stroke-width:1;" width="6" x="334" y="543.7266"/><text fill="#000000" font-family="Verdana" font-size="14" lengthAdjust="spacing" textLength="121.0439" x="344" y="550.0732">calculateScores()</text></g><!--class GameSetup--><g class="entity" data-entity="GameSetup" data-source-line="25" data-uid="ent0007" id="entity_GameSetup"><rect fill="#FFFFFF" height="60.2969" rx="2.5" ry="2.5" style="stroke:#000000;stroke-width:1;" width="196.7715" x="84.5" y="189"/><ellipse cx="137.9219" cy="203" fill="#FFFFFF" rx="9" ry="9" style="stroke:#000000;stroke-width:1;"/><path d="M140.8906,208.6406 Q140.3125,208.9375 139.6719,209.0781 Q139.0313,209.2344 138.3281,209.2344 Q135.8281,209.2344 134.5,207.5938 Q133.1875,205.9375 133.1875,202.8125 Q133.1875,199.6875 134.5,198.0313 Q135.8281,196.375 138.3281,196.375 Q139.0313,196.375 139.6719,196.5313 Q140.3281,196.6875 140.8906,196.9844 L140.8906,199.7031 Q140.2656,199.125 139.6719,198.8594 Q139.0781,198.5781 138.4531,198.5781 Q137.1094,198.5781 136.4219,199.6563 Q135.7344,200.7188 135.7344,202.8125 Q135.7344,204.9063 136.4219,205.9844 Q137.1094,207.0469 138.4531,207.0469 Q139.0781,207.0469 139.6719,206.7813 Q140.2656,206.5 140.8906,205.9219 L140.8906,208.6406 Z " fill="#000000"/><text fill="#000000" font-family="Verdana" font-size="14" lengthAdjust="spacing" textLength="82.4277" x="155.4219" y="207.8467">GameSetup</text><line style="stroke:#000000;stroke-width:1;" x1="85.5" x2="280.2715" y1="217" y2="217"/><line style="stroke:#000000;stroke-width:1;" x1="85.5" x2="280.2715" y1="225" y2="225"/><ellipse cx="95.5" cy="238.6484" fill="#FFFFFF" rx="3" ry="3" style="stroke:#000000;stroke-width:1;"/><text fill="#000000" font-family="Verdana" font-size="14" lengthAdjust="spacing" textLength="172.7715" x="102.5" y="241.9951">configure(): GameConfig</text></g><!--class GameConfig--><g class="entity" data-entity="GameConfig" data-source-line="29" data-uid="ent0008" id="entity_GameConfig"><rect fill="#FFFFFF" height="109.1875" rx="2.5" ry="2.5" style="stroke:#000000;stroke-width:1;" width="215.4883" x="75.5" y="415.5"/><ellipse cx="136.1953" cy="429.5" fill="#FFFFFF" rx="9" ry="9" style="stroke:#000000;stroke-width:1;"/><path d="M139.1641,435.1406 Q138.5859,435.4375 137.9453,435.5781 Q137.3047,435.7344 136.6016,435.7344 Q134.1016,435.7344 132.7734,434.0938 Q131.4609,432.4375 131.4609,429.3125 Q131.4609,426.1875 132.7734,424.5313 Q134.1016,422.875 136.6016,422.875 Q137.3047,422.875 137.9453,423.0313 Q138.6016,423.1875 139.1641,423.4844 L139.1641,426.2031 Q138.5391,425.625 137.9453,425.3594 Q137.3516,425.0781 136.7266,425.0781 Q135.3828,425.0781 134.6953,426.1563 Q134.0078,427.2188 134.0078,429.3125 Q134.0078,431.4063 134.6953,432.4844 Q135.3828,433.5469 136.7266,433.5469 Q137.3516,433.5469 137.9453,433.2813 Q138.5391,433 139.1641,432.4219 L139.1641,435.1406 Z " fill="#000000"/><text fill="#000000" font-family="Verdana" font-size="14" lengthAdjust="spacing" textLength="86.5977" x="153.6953" y="434.3467">GameConfig</text><line style="stroke:#000000;stroke-width:1;" x1="76.5" x2="289.9883" y1="443.5" y2="443.5"/><rect fill="none" height="6" style="stroke:#000000;stroke-width:1;" width="6" x="83.5" y="454.1484"/><text fill="#000000" font-family="Verdana" font-size="14" lengthAdjust="spacing" textLength="97.8291" x="93.5" y="460.4951">pointLimit: int</text><rect fill="none" height="6" style="stroke:#000000;stroke-width:1;" width="6" x="83.5" y="470.4453"/><text fill="#000000" font-family="Verdana" font-size="14" lengthAdjust="spacing" textLength="102.2998" x="93.5" y="476.792">deckCount: int</text><rect fill="none" height="6" style="stroke:#000000;stroke-width:1;" width="6" x="83.5" y="486.7422"/><text fill="#000000" font-family="Verdana" font-size="14" lengthAdjust="spacing" textLength="191.4883" x="93.5" y="493.0889">playerNames: List&lt;String&gt;</text><rect fill="none" height="6" style="stroke:#000000;stroke-width:1;" width="6" x="83.5" y="503.0391"/><text fill="#000000" font-family="Verdana" font-size="14" lengthAdjust="spacing" textLength="81.4639" x="93.5" y="509.3857">aiCount: int</text><line style="stroke:#000000;stroke-width:1;" x1="76.5" x2="289.9883" y1="516.6875" y2="516.6875"/></g><!--class CombinationFinder--><g class="entity" data-entity="CombinationFinder" data-source-line="36" data-uid="ent0009" id="entity_CombinationFinder"><rect fill="#FFFFFF" height="92.8906" rx="2.5" ry="2.5" style="stroke:#000000;stroke-width:1;" width="415.877" x="148" y="634"/><ellipse cx="285.6406" cy="648" fill="#FFFFFF" rx="9" ry="9" style="stroke:#000000;stroke-width:1;"/><path d="M288.6094,653.6406 Q288.0313,653.9375 287.3906,654.0781 Q286.75,654.2344 286.0469,654.2344 Q283.5469,654.2344 282.2188,652.5938 Q280.9063,650.9375 280.9063,647.8125 Q280.9063,644.6875 282.2188,643.0313 Q283.5469,641.375 286.0469,641.375 Q286.75,641.375 287.3906,641.5313 Q288.0469,641.6875 288.6094,641.9844 L288.6094,644.7031 Q287.9844,644.125 287.3906,643.8594 Q286.7969,643.5781 286.1719,643.5781 Q284.8281,643.5781 284.1406,644.6563 Q283.4531,645.7188 283.4531,647.8125 Q283.4531,649.9063 284.1406,650.9844 Q284.8281,652.0469 286.1719,652.0469 Q286.7969,652.0469 287.3906,651.7813 Q287.9844,651.5 288.6094,650.9219 L288.6094,653.6406 Z " fill="#000000"/><text fill="#000000" font-family="Verdana" font-size="14" lengthAdjust="spacing" textLength="133.0957" x="303.1406" y="652.8467">CombinationFinder</text><line style="stroke:#000000;stroke-width:1;" x1="149" x2="562.877" y1="662" y2="662"/><line style="stroke:#000000;stroke-width:1;" x1="149" x2="562.877" y1="670" y2="670"/><ellipse cx="159" cy="683.6484" fill="#FFFFFF" rx="3" ry="3" style="stroke:#000000;stroke-width:1;"/><text fill="#000000" font-family="Verdana" font-size="14" lengthAdjust="spacing" text-decoration="underline" textLength="220.2813" x="166" y="686.9951">canClose(List&lt;Card&gt;): boolean</text><ellipse cx="159" cy="699.9453" fill="#FFFFFF" rx="3" ry="3" style="stroke:#000000;stroke-width:1;"/><text fill="#000000" font-family="Verdana" font-size="14" lengthAdjust="spacing" text-decoration="underline" textLength="247.1602" x="166" y="703.292">hasChinchon(List&lt;Card&gt;): boolean</text><ellipse cx="159" cy="716.2422" fill="#FFFFFF" rx="3" ry="3" style="stroke:#000000;stroke-width:1;"/><text fill="#000000" font-family="Verdana" font-size="14" lengthAdjust="spacing" text-decoration="underline" textLength="391.877" x="166" y="719.5889">findBestCombinations(List&lt;Card&gt;): List&lt;Combination&gt;</text></g><!--class Player--><g class="entity" data-entity="Player" data-source-line="43" data-uid="ent0010" id="entity_Player"><rect fill="#FFFFFF" height="44" rx="2.5" ry="2.5" style="stroke:#000000;stroke-width:1;" width="71.5654" x="620" y="448"/><ellipse cx="633" cy="462" fill="#FFFFFF" rx="9" ry="9" style="stroke:#000000;stroke-width:1;"/><path d="M635.9688,467.6406 Q635.3906,467.9375 634.75,468.0781 Q634.1094,468.2344 633.4063,468.2344 Q630.9063,468.2344 629.5781,466.5938 Q628.2656,464.9375 628.2656,461.8125 Q628.2656,458.6875 629.5781,457.0313 Q630.9063,455.375 633.4063,455.375 Q634.1094,455.375 634.75,455.5313 Q635.4063,455.6875 635.9688,455.9844 L635.9688,458.7031 Q635.3438,458.125 634.75,457.8594 Q634.1563,457.5781 633.5313,457.5781 Q632.1875,457.5781 631.5,458.6563 Q630.8125,459.7188 630.8125,461.8125 Q630.8125,463.9063 631.5,464.9844 Q632.1875,466.0469 633.5313,466.0469 Q634.1563,466.0469 634.75,465.7813 Q635.3438,465.5 635.9688,464.9219 L635.9688,467.6406 Z " fill="#000000"/><text fill="#000000" font-family="Verdana" font-size="14" lengthAdjust="spacing" textLength="43.5654" x="645" y="466.8467">Player</text><line style="stroke:#000000;stroke-width:1;" x1="621" x2="690.5654" y1="476" y2="476"/><line style="stroke:#000000;stroke-width:1;" x1="621" x2="690.5654" y1="484" y2="484"/></g><!--class Deck--><g class="entity" data-entity="Deck" data-source-line="46" data-uid="ent0015" id="entity_Deck"><rect fill="#FFFFFF" height="44" rx="2.5" ry="2.5" style="stroke:#000000;stroke-width:1;" width="63.1982" x="620.5" y="658.5"/><ellipse cx="633.5" cy="672.5" fill="#FFFFFF" rx="9" ry="9" style="stroke:#000000;stroke-width:1;"/><path d="M636.4688,678.1406 Q635.8906,678.4375 635.25,678.5781 Q634.6094,678.7344 633.9063,678.7344 Q631.4063,678.7344 630.0781,677.0938 Q628.7656,675.4375 628.7656,672.3125 Q628.7656,669.1875 630.0781,667.5313 Q631.4063,665.875 633.9063,665.875 Q634.6094,665.875 635.25,666.0313 Q635.9063,666.1875 636.4688,666.4844 L636.4688,669.2031 Q635.8438,668.625 635.25,668.3594 Q634.6563,668.0781 634.0313,668.0781 Q632.6875,668.0781 632,669.1563 Q631.3125,670.2188 631.3125,672.3125 Q631.3125,674.4063 632,675.4844 Q632.6875,676.5469 634.0313,676.5469 Q634.6563,676.5469 635.25,676.2813 Q635.8438,676 636.4688,675.4219 L636.4688,678.1406 Z " fill="#000000"/><text fill="#000000" font-family="Verdana" font-size="14" lengthAdjust="spacing" textLength="35.1982" x="645.5" y="677.3467">Deck</text><line style="stroke:#000000;stroke-width:1;" x1="621.5" x2="682.6982" y1="686.5" y2="686.5"/><line style="stroke:#000000;stroke-width:1;" x1="621.5" x2="682.6982" y1="694.5" y2="694.5"/></g><!--class DiscardPile--><g class="entity" data-entity="DiscardPile" data-source-line="47" data-uid="ent0018" id="entity_DiscardPile"><rect fill="#FFFFFF" height="44" rx="2.5" ry="2.5" style="stroke:#000000;stroke-width:1;" width="105.7178" x="719" y="658.5"/><ellipse cx="732" cy="672.5" fill="#FFFFFF" rx="9" ry="9" style="stroke:#000000;stroke-width:1;"/><path d="M734.9688,678.1406 Q734.3906,678.4375 733.75,678.5781 Q733.1094,678.7344 732.4063,678.7344 Q729.9063,678.7344 728.5781,677.0938 Q727.2656,675.4375 727.2656,672.3125 Q727.2656,669.1875 728.5781,667.5313 Q729.9063,665.875 732.4063,665.875 Q733.1094,665.875 733.75,666.0313 Q734.4063,666.1875 734.9688,666.4844 L734.9688,669.2031 Q734.3438,668.625 733.75,668.3594 Q733.1563,668.0781 732.5313,668.0781 Q731.1875,668.0781 730.5,669.1563 Q729.8125,670.2188 729.8125,672.3125 Q729.8125,674.4063 730.5,675.4844 Q731.1875,676.5469 732.5313,676.5469 Q733.1563,676.5469 733.75,676.2813 Q734.3438,676 734.9688,675.4219 L734.9688,678.1406 Z " fill="#000000"/><text fill="#000000" font-family="Verdana" font-size="14" lengthAdjust="spacing" textLength="77.7178" x="744" y="677.3467">DiscardPile</text><line style="stroke:#000000;stroke-width:1;" x1="720" x2="823.7178" y1="686.5" y2="686.5"/><line style="stroke:#000000;stroke-width:1;" x1="720" x2="823.7178" y1="694.5" y2="694.5"/></g><!--reverse link Game to Player--><g class="link" data-entity-1="Game" data-entity-2="Player" data-source-line="43" data-uid="lnk12" id="link_Game_Player"><path codeLine="43" d="M525.6672,315.1956 C568.5472,365.8056 611.64,416.65 638.05,447.82" fill="none" id="Game-backto-Player" style="stroke:#000000;stroke-width:1;"/><polygon fill="#000000" points="517.91,306.04,518.7367,313.2036,525.6672,315.1956,524.8405,308.0321,517.91,306.04" style="stroke:#000000;stroke-width:1;"/><text fill="#000000" font-family="Verdana" font-size="13" lengthAdjust="spacing" textLength="47.6392" x="557" y="349.0669">players</text><text fill="#000000" font-family="Verdana" font-size="13" lengthAdjust="spacing" textLength="8.271" x="516.0772" y="326.5161">1</text><text fill="#000000" font-family="Verdana" font-size="13" lengthAdjust="spacing" textLength="6.5" x="626.5453" y="436.9282">*</text></g><!--reverse link Game to Round--><g class="link" data-entity-1="Game" data-entity-2="Round" data-source-line="44" data-uid="lnk13" id="link_Game_Round"><path codeLine="44" d="M445,318.04 C445,342.92 445,358.07 445,382.96" fill="none" id="Game-backto-Round" style="stroke:#000000;stroke-width:1;"/><polygon fill="#000000" points="445,306.04,441,312.04,445,318.04,449,312.04,445,306.04" style="stroke:#000000;stroke-width:1;"/><text fill="#000000" font-family="Verdana" font-size="13" lengthAdjust="spacing" textLength="48.3247" x="446" y="349.0669">creates</text><text fill="#000000" font-family="Verdana" font-size="13" lengthAdjust="spacing" textLength="8.271" x="436.67" y="371.892">1</text></g><!--link Game to GameConfig--><g class="link" data-entity-1="Game" data-entity-2="GameConfig" data-source-line="45" data-uid="lnk14" id="link_Game_GameConfig"><path codeLine="45" d="M354.47,306.04 C316.31,342.31 277.4196,379.2671 243.8996,411.1171" fill="none" id="Game-to-GameConfig" style="stroke:#000000;stroke-width:1;stroke-dasharray:7,7;"/><polygon fill="#000000" points="239.55,415.25,248.8297,411.9504,243.1747,411.8059,243.3191,406.1509,239.55,415.25" style="stroke:#000000;stroke-width:1;"/><text fill="#000000" font-family="Verdana" font-size="13" lengthAdjust="spacing" textLength="29.7832" x="323" y="349.0669">uses</text></g><!--reverse link Round to Deck--><g class="link" data-entity-1="Round" data-entity-2="Deck" data-source-line="46" data-uid="lnk17" id="link_Round_Deck"><path codeLine="46" d="M538.8442,565.5263 C575.5942,602.5463 607.04,634.21 630.76,658.1" fill="none" id="Round-backto-Deck" style="stroke:#000000;stroke-width:1;"/><polygon fill="#000000" points="530.39,557.01,531.7783,564.0862,538.8442,565.5263,537.4558,558.4501,530.39,557.01" style="stroke:#000000;stroke-width:1;"/><text fill="#000000" font-family="Verdana" font-size="13" lengthAdjust="spacing" textLength="30.9258" x="574" y="600.0669">deck</text><text fill="#000000" font-family="Verdana" font-size="13" lengthAdjust="spacing" textLength="8.271" x="529.653" y="577.4834">1</text><text fill="#000000" font-family="Verdana" font-size="13" lengthAdjust="spacing" textLength="8.271" x="616.3016" y="647.522">1</text></g><!--reverse link Round to DiscardPile--><g class="link" data-entity-1="Round" data-entity-2="DiscardPile" data-source-line="47" data-uid="lnk19" id="link_Round_DiscardPile"><path codeLine="47" d="M574.7983,540.8363 C629.0983,570.6563 676.2,597.65 701,615.5 C718.92,628.39 737.38,645.16 750.99,658.3" fill="none" id="Round-backto-DiscardPile" style="stroke:#000000;stroke-width:1;"/><polygon fill="#000000" points="564.28,535.06,567.6137,541.4543,574.7983,540.8363,571.4646,534.4421,564.28,535.06" style="stroke:#000000;stroke-width:1;"/><text fill="#000000" font-family="Verdana" font-size="13" lengthAdjust="spacing" textLength="70.4082" x="681" y="600.0669">discardPile</text><text fill="#000000" font-family="Verdana" font-size="13" lengthAdjust="spacing" textLength="8.271" x="571.8021" y="535.6271">1</text><text fill="#000000" font-family="Verdana" font-size="13" lengthAdjust="spacing" textLength="8.271" x="736.3429" y="647.4029">1</text></g><!--link Round to CombinationFinder--><g class="link" data-entity-1="Round" data-entity-2="CombinationFinder" data-source-line="48" data-uid="lnk20" id="link_Round_CombinationFinder"><path codeLine="48" d="M408.29,557.01 C397.03,583.37 387.4573,605.8225 377.8273,628.3625" fill="none" id="Round-to-CombinationFinder" style="stroke:#000000;stroke-width:1;stroke-dasharray:7,7;"/><polygon fill="#000000" points="375.47,633.88,382.6843,627.1753,377.4344,629.2821,375.3276,624.0322,375.47,633.88" style="stroke:#000000;stroke-width:1;"/><text fill="#000000" font-family="Verdana" font-size="13" lengthAdjust="spacing" textLength="63.3433" x="396" y="600.0669">evaluates</text></g><!--link GameSetup to GameConfig--><g class="link" data-entity-1="GameSetup" data-entity-2="GameConfig" data-source-line="49" data-uid="lnk21" id="link_GameSetup_GameConfig"><path codeLine="49" d="M183,249.05 C183,289.72 183,358.34 183,409.29" fill="none" id="GameSetup-to-GameConfig" style="stroke:#000000;stroke-width:1;stroke-dasharray:7,7;"/><polygon fill="#000000" points="183,415.29,187,406.29,183,410.29,179,406.29,183,415.29" style="stroke:#000000;stroke-width:1;"/><text fill="#000000" font-family="Verdana" font-size="13" lengthAdjust="spacing" textLength="65.6665" x="184" y="349.0669">generates</text></g><!--SRC=[fLF1JkCm4BttAxmvjLIDn3L2FMmGN12WxKgSfywGM3ZZo7P0AyI_xzWE9Mco4jBc42Np_DxCl1d_y0ssA3eDYbOTo1UeKMJGTRbi5Cd6K5v3YvbuNmb-f0Rdn2r7Xa1uTg8pYloTQfKl17-Da0hbIsbwcW6MWzLztnxHJg6jS1wiNs_6-Xh-_0g4IHGrPoJm-CWmMZS1bGjLFhoYNMyASJH68z081o8MbFYaYCAP27siHbt6X9CsOyr1SadmqoyMdCFRsCAifz-zfNMgVWmrG9N6Qmjl2o1uZstdIsqSVi9BzGmYoacmrOAE12rxpUuTfB7eJWw4zzci3-ZxRkJ4LaX3pwhkBGPpmv4o1lujaV3_NPekTd7FUguGTyhvguEtYkhzs1zrHftLKvhs6FP66RfHLA6TjFREw-UL_623A9aS4vNiudwpDDaJeG5N3almRSup5_0JdH_LvARazFC5xuUcU5VZFSmkCt6nsudi8ZkxkCcjF8q-4yLWdqkyo65kMlD2I8ky30EOv_lns0hHEuRIqLF2o_E4hQbGvzSylP0jJF6xbBIbZqfZP7xz3WAXdldO2e6leFjJsMbFPxNNo3Sy7FeB]--></g></svg>